<svg id="Layer_1" data-name="Layer 1" xmlns="http://www.w3.org/2000/svg" xmlns:xlink="http://www.w3.org/1999/xlink" viewBox="0 0 100 100"><defs><style>.cls-1{fill:url(#linear-gradient);}.cls-2{fill:url(#linear-gradient-2);}</style><linearGradient id="linear-gradient" x1="4.28" y1="8.53" x2="85.12" y2="89.37" gradientUnits="userSpaceOnUse"><stop offset="0" stop-color="#886c3b"/><stop offset="0.09" stop-color="#8a6e3e"/><stop offset="0.16" stop-color="#917647"/><stop offset="0.21" stop-color="#9d8357"/><stop offset="0.26" stop-color="#ae966d"/><stop offset="0.31" stop-color="#c4ae89"/><stop offset="0.36" stop-color="#decbac"/><stop offset="0.4" stop-color="#fcedd4"/><stop offset="0.5" stop-color="#d9c6a6"/><stop offset="0.61" stop-color="#bca57f"/><stop offset="0.71" stop-color="#a58c61"/><stop offset="0.81" stop-color="#957a4c"/><stop offset="0.91" stop-color="#8b703f"/><stop offset="1" stop-color="#886c3b"/></linearGradient><linearGradient id="linear-gradient-2" x1="7.46" y1="49.72" x2="17.98" y2="60.23" xlink:href="#linear-gradient"/></defs><path class="cls-1" d="M12.19,96V91.27h4a28.85,28.85,0,0,1-3.07-14.4A25.68,25.68,0,0,1,19.5,60.68,56.36,56.36,0,0,1,26,54.46a63.09,63.09,0,0,0,8-7.56,20.59,20.59,0,0,0,4.24-7.39,21.24,21.24,0,0,0,.53-10.85,11.47,11.47,0,0,0-1.39-3.93,4,4,0,0,0-.06.82,17.1,17.1,0,0,1-2.52,12.08,27.05,27.05,0,0,1-5.29,6c-2.39,2.15-4.9,4.16-7.22,6.39a36.34,36.34,0,0,0-8,10.32c-4.1,8.84-3.4,11.55-3.5,11.58a3.88,3.88,0,0,1-.15-.36A24.92,24.92,0,0,1,9,61.18a23,23,0,0,1,5.53-13.55,52.67,52.67,0,0,1,5.91-5.57C37.59,27.49,37.8,5.4,21.23,5.4c-2.58-.09-5.17,0-7.75-.06H12.19V.62A5.9,5.9,0,0,1,13,.51q24.27,0,48.55,0a37.9,37.9,0,0,1,12.79,2A23.14,23.14,0,0,1,85.21,10.1a20.76,20.76,0,0,1,3.93,18.1c-1.15,5.16-4.22,8.9-8.25,11.91-3.31,2.48-11.34,5.6-11.71,5.75.47.17,7.45,2.18,10.7,3.64a29.21,29.21,0,0,1,9,6c4.7,4.75,6.43,10.56,5.84,17.18A20.68,20.68,0,0,1,87.52,86.9,34.86,34.86,0,0,1,79,92.18a38.09,38.09,0,0,1-9.91,3.08,69.36,69.36,0,0,1-10,.85c-6.88.11-13.76,0-20.64,0a2.33,2.33,0,0,0-1.36.49,13.08,13.08,0,0,1-7.65,2.88,12.38,12.38,0,0,1-8.36-2.53,3.79,3.79,0,0,0-2.74-.87c-1.66.12-3.34,0-5,0C13,96.1,12.68,96.06,12.19,96ZM48.52,44.31h2c3.13-.05,6.25,0,9.38-.16a15.16,15.16,0,0,0,6.9-2.08c4.19-2.34,6.45-6.14,7.38-10.83a35.33,35.33,0,0,0,.26-13.48A13.8,13.8,0,0,0,69,8.66,16.44,16.44,0,0,0,61.41,5.9a79.32,79.32,0,0,0-15.48-.48A16.25,16.25,0,0,0,42.61,6a4,4,0,0,0-2.77,4.1c0,3.75.06,7.5-.07,11.25a3.65,3.65,0,0,0,1,2.88,19.55,19.55,0,0,1,4.66,9.71,20.46,20.46,0,0,1-4.24,17.42,62.13,62.13,0,0,1-8.92,8.47A55.36,55.36,0,0,0,20.62,72.57,22.6,22.6,0,0,0,18,78.26c-1.63,5.42-.23,10.13,3.65,14a10.48,10.48,0,0,0,6.52,3.24,9,9,0,0,0,9.42-7,9.19,9.19,0,0,0-.19-4.22c-.18.28-.34.51-.48.76a5.15,5.15,0,0,1-5.32,2.81,5.55,5.55,0,0,1-4.46-4.79,12.15,12.15,0,0,1,2.24-8.66,6.31,6.31,0,0,1,5.47-2.84,7.68,7.68,0,0,1,5.91,2.89,11.81,11.81,0,0,1,2.71,8.38,18.41,18.41,0,0,1-1.35,6.66c-.88,1.66,2.57,1.61,4,1.62,4.25,0,8.51,0,12.76,0A27.94,27.94,0,0,0,68.9,89.42a15,15,0,0,0,9.37-10.2,29.45,29.45,0,0,0,.27-16.07A17.48,17.48,0,0,0,69.1,51.42a20.7,20.7,0,0,0-9.2-2.07q-6.19,0-12.39-.11a.88.88,0,0,0-.9.54,9.67,9.67,0,0,1-.5.89c-2.51,4.41-11,9.9-11.37,10,13.49-11.41,14.35-18.73,12-30.7A23.62,23.62,0,0,1,48.52,44.31Z"/><path class="cls-2" d="M7.42,70.78c-2.1-2.86-3.07-10.64-1.2-16.26a22.18,22.18,0,0,1,13.12-14A22.43,22.43,0,0,0,8.49,52.91C4.34,64.69,7.38,70.44,7.42,70.78Z"/></svg>